<svg width="39" height="39" viewBox="0 0 39 39" fill="none" xmlns="http://www.w3.org/2000/svg">
<path d="M19.5 13.7308V20.2308M11.9141 6.39844L6.39844 11.9141L6.39343 11.9188C5.83468 12.4775 5.55464 12.7576 5.35425 13.0846C5.17605 13.3753 5.04441 13.6927 4.9648 14.0244C4.875 14.3984 4.875 14.7957 4.875 15.5906V23.4094C4.875 24.2043 4.875 24.6017 4.9648 24.9758C5.04441 25.3074 5.17605 25.6243 5.35425 25.9151C5.55517 26.243 5.83671 26.5245 6.39844 27.0862L11.9141 32.6019C12.4762 33.164 12.7566 33.4444 13.0846 33.6454C13.3754 33.8236 13.6919 33.9557 14.0236 34.0353C14.397 34.125 14.7937 34.125 15.5862 34.125H23.4122C24.2047 34.125 24.6031 34.125 24.9765 34.0353C25.3082 33.9557 25.6251 33.8236 25.9159 33.6454C26.2439 33.4444 26.525 33.1639 27.087 32.6019L32.6027 27.0862C33.1647 26.5241 33.4452 26.2431 33.6462 25.9151C33.8244 25.6243 33.9549 25.3074 34.0345 24.9758C34.1243 24.6017 34.125 24.2043 34.125 23.4094V15.5906C34.125 14.7957 34.1243 14.3984 34.0345 14.0244C33.9549 13.6927 33.8244 13.3754 33.6462 13.0846C33.4452 12.7566 33.1647 12.4761 32.6027 11.9141L27.087 6.39844C26.5253 5.8367 26.2438 5.55517 25.9159 5.35425C25.6251 5.17605 25.3082 5.04441 24.9766 4.9648C24.6025 4.875 24.2035 4.875 23.4086 4.875H15.5898C14.7949 4.875 14.3976 4.875 14.0236 4.9648C13.6919 5.04441 13.3754 5.17605 13.0846 5.35425C12.7596 5.55341 12.4817 5.83126 11.9298 6.38321L11.9141 6.39844ZM19.5809 25.1058V25.2683L19.4191 25.2686V25.1058H19.5809Z" stroke="#FF0000" stroke-width="3" stroke-linecap="round" stroke-linejoin="round"/>
</svg>
