<svg width="28" height="28" viewBox="0 0 28 28" fill="none" xmlns="http://www.w3.org/2000/svg">
<path d="M7 20.9999C7.07427 21 7.1508 21 7.22973 21H14M7 20.9999C5.84702 20.9991 5.24223 20.9846 4.77376 20.7459C4.33472 20.5222 3.97802 20.1643 3.75432 19.7253C3.5 19.2262 3.5 18.5737 3.5 17.2669V10.7336C3.5 9.42677 3.5 8.77289 3.75432 8.27376C3.97802 7.83472 4.33472 7.47802 4.77376 7.25432C5.27289 7 5.92677 7 7.23356 7H20.7669C22.0737 7 22.7262 7 23.2253 7.25432C23.6643 7.47802 24.0222 7.83472 24.2459 8.27376C24.5 8.7724 24.5 9.42549 24.5 10.7297V17.2703C24.5 18.5745 24.5 19.2267 24.2459 19.7253C24.0222 20.1643 23.6643 20.5222 23.2253 20.7459C22.7267 21 22.0745 21 20.7703 21H14M7 20.9999C7.00005 19.7113 8.56703 18.6667 10.5 18.6667C12.433 18.6667 14 19.7113 14 21M7 20.9999C7 21 7 20.9999 7 20.9999ZM21 16.3333H16.3333M21 12.8333H17.5M10.5 15.1667C9.21134 15.1667 8.16667 14.122 8.16667 12.8333C8.16667 11.5447 9.21134 10.5 10.5 10.5C11.7887 10.5 12.8333 11.5447 12.8333 12.8333C12.8333 14.122 11.7887 15.1667 10.5 15.1667Z" stroke="#696969" stroke-width="2" stroke-linecap="round" stroke-linejoin="round"/>
</svg>
