<svg width="51" height="51" viewBox="0 0 51 51" fill="none" xmlns="http://www.w3.org/2000/svg">
<path d="M27.625 6.37685C27.4221 6.375 27.1942 6.375 26.9338 6.375H17.4254C15.0452 6.375 13.8542 6.375 12.9451 6.83822C12.1454 7.24568 11.4957 7.89538 11.0882 8.69507C10.625 9.60419 10.625 10.7952 10.625 13.1754V37.8254C10.625 40.2056 10.625 41.3951 11.0882 42.3043C11.4957 43.1039 12.1454 43.7548 12.9451 44.1622C13.8533 44.625 15.0429 44.625 17.4185 44.625L33.5816 44.625C35.9571 44.625 37.145 44.625 38.0532 44.1622C38.8529 43.7548 39.5048 43.1039 39.9122 42.3043C40.375 41.396 40.375 40.2082 40.375 37.8326V19.8171C40.375 19.5563 40.3749 19.3282 40.373 19.125M27.625 6.37685C28.232 6.38237 28.616 6.40442 28.9825 6.49243C29.4162 6.59654 29.8304 6.76869 30.2107 7.00171C30.6395 7.26445 31.0076 7.63261 31.7422 8.36719L38.3838 15.0088C39.1189 15.7439 39.4843 16.1104 39.7472 16.5393C39.9802 16.9195 40.1526 17.3342 40.2567 17.7678C40.3447 18.1342 40.3672 18.5183 40.373 19.125M27.625 6.37685V12.325C27.625 14.7052 27.625 15.8945 28.0882 16.8036C28.4957 17.6033 29.1454 18.2548 29.9451 18.6622C30.8533 19.125 32.0429 19.125 34.4184 19.125H40.373M40.373 19.125H40.3754" stroke="#C0AEAE" stroke-width="2" stroke-linecap="round" stroke-linejoin="round"/>
</svg>
